<svg width="25" height="25" viewBox="0 0 25 25" fill="none" xmlns="http://www.w3.org/2000/svg">
<g id="Apple Logo" clip-path="url(#clip0_1_204)">
<rect width="24" height="24" transform="translate(0.845947 0.537109)" fill="black"/>
<path id="path4" d="M22.1266 18.9611C21.7787 19.7646 21.367 20.5043 20.89 21.1843C20.2398 22.1114 19.7074 22.7531 19.2971 23.1095C18.6611 23.6944 17.9796 23.9939 17.2499 24.011C16.726 24.011 16.0942 23.8619 15.3588 23.5595C14.621 23.2585 13.9429 23.1095 13.3229 23.1095C12.6727 23.1095 11.9754 23.2585 11.2294 23.5595C10.4824 23.8619 9.88057 24.0195 9.42044 24.0351C8.72067 24.0649 8.02317 23.7569 7.32694 23.1095C6.88257 22.7219 6.32676 22.0575 5.66091 21.1162C4.94651 20.111 4.35918 18.9455 3.89905 17.6166C3.40627 16.1813 3.15924 14.7914 3.15924 13.4458C3.15924 11.9044 3.4923 10.575 4.15943 9.46096C4.68373 8.56611 5.38123 7.86023 6.25421 7.34204C7.12719 6.82385 8.07044 6.55978 9.08625 6.54289C9.64206 6.54289 10.3709 6.71481 11.2767 7.0527C12.1799 7.39173 12.7599 7.56366 13.0142 7.56366C13.2043 7.56366 13.8485 7.36263 14.9407 6.96184C15.9735 6.59016 16.8452 6.43627 17.5594 6.49689C19.4944 6.65306 20.9482 7.41586 21.915 8.79014C20.1844 9.83874 19.3283 11.3074 19.3454 13.1915C19.361 14.6591 19.8934 15.8803 20.9397 16.85C21.4139 17.3 21.9434 17.6478 22.5326 17.8949C22.4048 18.2654 22.27 18.6203 22.1266 18.9611ZM17.6886 1.49724C17.6886 2.6475 17.2683 3.7215 16.4307 4.71558C15.4199 5.89734 14.1972 6.58022 12.8713 6.47247C12.8544 6.33447 12.8446 6.18924 12.8446 6.03662C12.8446 4.93237 13.3254 3.7506 14.179 2.78435C14.6052 2.29512 15.1473 1.88833 15.8046 1.56382C16.4605 1.24416 17.0809 1.06738 17.6644 1.03711C17.6815 1.19088 17.6886 1.34466 17.6886 1.49723V1.49724Z" fill="white"/>
</g>
<defs>
<clipPath id="clip0_1_204">
<rect width="24" height="24" fill="white" transform="translate(0.845947 0.537109)"/>
</clipPath>
</defs>
</svg>
